# xmcd
#
# Track frame offsets: 
#        175
#        20062
#        39510
#        51325
#        65250
#        86150
#        103487
#        116002
#        134417
#        149362
#        161582
#
# Disc length: 2463 seconds
#
# Revision: 0
# Processed by: cddbd v1.5.2PL0 Copyright (c) Steve Scherf et al.
# Submitted via: ExactAudioCopy v0.99pb5
#
DISCID=a4099d0b
DTITLE=Sacred Denial - Sifting Through Remains
DYEAR=1988
DGENRE=Crossover
TTITLE0=Sifting Through Remains
TTITLE1=When I Sleep
TTITLE2=Brother's Inventions
TTITLE3=Some Curiosity
TTITLE4=Birdie Talk
TTITLE5=Conquer
TTITLE6=Root of All Evil
TTITLE7=No Way
TTITLE8=Surrender
TTITLE9=Take A Look Around
TTITLE10=Violent Affection
EXTD=
EXTT0=
EXTT1=
EXTT2=
EXTT3=
EXTT4=
EXTT5=
EXTT6=
EXTT7=
EXTT8=
EXTT9=
EXTT10=
PLAYORDER=
